<svg width="512" height="512" viewBox="0 0 512 512" xmlns="http://www.w3.org/2000/svg">
  <!-- Blue donut ring (zone) at cy = 380 -->
  <path d="M256 340c-55 0-100 18-100 40s45 40 100 40 100-18 100-40-45-40-100-40zm0 20c38 0 70 9 70 20s-32 20-70 20-70-9-70-20 32-20 70-20z" fill="#1E90FF"/>

  <!-- Red location pin (20% smaller, centered) -->
  <g transform="translate(256, 236) scale(0.8) translate(-256, -160)">
    <path d="M256 100c-50 0-90 40-90 90 0 60 90 160 90 160s90-100 90-160c0-50-40-90-90-90z" fill="#FF4F4F"/>
  </g>

  <!-- White person silhouette -->
  <circle cx="256" cy="226" r="26" fill="white"/>
  <path d="M220 276c0-12 18-22 36-22s36 10 36 22l-36 60-36-60z" fill="white"/>

  <!-- FriendZone text -->
  <text x="105" y="470"
        font-family="'Manrope', 'Arial Rounded MT Bold', sans-serif"
        font-size="64"
        fill="#1A1A1A"
        font-weight="700"
        letter-spacing="0.5"
  >FriendZone</text>
</svg>
